<svg xmlns="http://www.w3.org/2000/svg" viewBox="0 0 330.47 330.47">
	<defs>
		<style>
			#slide2_1 .cls-1,
			#slide2_1 .cls-2,
			#slide2_1 .cls-3,
			#slide2_1 .cls-4 {
				fill: none;
				stroke: #fff;
				stroke-width: 4px;
			}

			#slide2_1 .cls-1 {
				stroke-miterlimit: 10;
			}

			#slide2_1 .cls-2,
			#slide2_1 .cls-3,
			#slide2_1 .cls-4 {
				stroke-linecap: round;
				stroke-linejoin: round;
			}

			#slide2_1 .cls-3 {
				stroke-dasharray: 1.94 9.71;
			}

			#slide2_1 .cls-4 {
				stroke-dasharray: 1.94 9.71 1.94 9.71;
			}
		</style>
	</defs>
	<g id="slide2_1" data-name="slide2_1">
		<g id="slide2_1">
			<rect id="outer" class="cls-1" x="50.4" y="50.4" width="229.67" height="229.67"
				transform="translate(-68.44 165.23) rotate(-45)" />
			<g id="inner">
				<polyline class="cls-2" points="165.94 67.04 165.23 66.33 164.53 67.04" />
				<line class="cls-3" x1="157.66" y1="73.91" x2="152.86" y2="78.71" />
				<line class="cls-4" x1="149.42" y1="82.15" x2="70.47" y2="161.09" />
				<polyline class="cls-2" points="67.04 164.53 66.33 165.23 67.04 165.94" />
				<line class="cls-3" x1="73.91" y1="172.8" x2="78.71" y2="177.61" />
				<line class="cls-4" x1="82.15" y1="181.04" x2="161.09" y2="259.99" />
				<polyline class="cls-2" points="164.53 263.42 165.23 264.13 165.94 263.42" />
				<line class="cls-3" x1="172.8" y1="256.56" x2="177.61" y2="251.75" />
				<line class="cls-4" x1="181.04" y1="248.32" x2="259.99" y2="169.37" />
				<polyline class="cls-2" points="263.42 165.94 264.13 165.23 263.42 164.53" />
				<line class="cls-3" x1="256.56" y1="157.66" x2="251.75" y2="152.86" />
				<line class="cls-4" x1="248.32" y1="149.42" x2="169.37" y2="70.47" />
			</g>
		</g>
	</g>
</svg>