<svg xmlns="http://www.w3.org/2000/svg" viewBox="0 0 918.65 593.75">
	<defs>
		<style>
			#slide3-svg .cls-1 {
				fill: #fff;
			}
		</style>
	</defs>
	<g id="slide3-svg" data-name="slide3-svg-layer2">
		<g id="slide3-svg-1" data-name="slide3-svg-layer1">
			<polygon class="cls-1"
				points="179.22 193.62 59.74 193.62 0 297.1 59.74 400.57 179.22 400.57 238.96 297.1 179.22 193.62" />
			<polygon class="cls-1"
				points="349.13 99.03 234.77 99.03 177.6 198.06 234.77 297.1 349.13 297.1 406.3 198.06 349.13 99.03" />
			<polygon class="cls-1"
				points="519.31 198.06 404.96 198.06 347.79 297.1 404.96 396.13 519.31 396.13 576.49 297.1 519.31 198.06" />
			<polygon class="cls-1"
				points="519.31 395.69 404.96 395.69 347.79 494.72 404.96 593.75 519.31 593.75 576.49 494.72 519.31 395.69" />
			<polygon class="cls-1"
				points="690.07 99.03 575.72 99.03 518.54 198.06 575.72 297.1 690.07 297.1 747.25 198.06 690.07 99.03" />
			<polygon class="cls-1"
				points="861.48 0 747.12 0 689.95 99.03 747.12 198.06 861.48 198.06 918.65 99.03 861.48 0" />
		</g>
	</g>
</svg>